<svg width="35" height="35" viewBox="0 0 35 35" fill="none" xmlns="http://www.w3.org/2000/svg">
<path d="M32.0833 26.2574C32.0833 27.0595 31.4329 27.7085 30.6323 27.7085H18.951C18.5662 27.7085 18.1971 27.5556 17.925 27.2835C17.6529 27.0114 17.5 26.6423 17.5 26.2574C17.5 25.8726 17.6529 25.5035 17.925 25.2314C18.1971 24.9593 18.5662 24.8064 18.951 24.8064H30.6323C31.4344 24.8064 32.0833 25.4554 32.0833 26.2574Z" fill="url(#paint0_linear_582_4120)"/>
<path d="M32.0837 17.5001C32.0837 18.3022 31.4332 18.9512 30.6326 18.9512H4.36803C3.98319 18.9512 3.61412 18.7983 3.34199 18.5262C3.06987 18.254 2.91699 17.885 2.91699 17.5001C2.91699 17.1153 3.06987 16.7462 3.34199 16.4741C3.61412 16.2019 3.98319 16.0491 4.36803 16.0491H30.6326C31.4347 16.0491 32.0837 16.6995 32.0837 17.5001Z" fill="url(#paint1_linear_582_4120)"/>
<path d="M30.6326 10.1938C31.0175 10.1938 31.3865 10.041 31.6587 9.76883C31.9308 9.49671 32.0837 9.12763 32.0837 8.74279C32.0837 8.35795 31.9308 7.98887 31.6587 7.71675C31.3865 7.44462 31.0175 7.29175 30.6326 7.29175H13.118C12.9275 7.29175 12.7388 7.32928 12.5627 7.4022C12.3867 7.47512 12.2267 7.58201 12.092 7.71675C11.9573 7.85149 11.8504 8.01145 11.7774 8.1875C11.7045 8.36355 11.667 8.55224 11.667 8.74279C11.667 8.93334 11.7045 9.12203 11.7774 9.29808C11.8504 9.47413 11.9573 9.63409 12.092 9.76883C12.2267 9.90357 12.3867 10.0105 12.5627 10.0834C12.7388 10.1563 12.9275 10.1938 13.118 10.1938H30.6326Z" fill="url(#paint2_linear_582_4120)"/>
<defs>
<linearGradient id="paint0_linear_582_4120" x1="24.7917" y1="24.8064" x2="24.7917" y2="27.7085" gradientUnits="userSpaceOnUse">
<stop stop-color="#603f8b"/>
<stop offset="1" stop-color="#603f8b"/>
</linearGradient>
<linearGradient id="paint1_linear_582_4120" x1="17.5003" y1="16.0491" x2="17.5003" y2="18.9512" gradientUnits="userSpaceOnUse">
<stop stop-color="#603f8b"/>
<stop offset="1" stop-color="#603f8b"/>
</linearGradient>
<linearGradient id="paint2_linear_582_4120" x1="21.8753" y1="7.29175" x2="21.8753" y2="10.1938" gradientUnits="userSpaceOnUse">
<stop stop-color="#603f8b"/>
<stop offset="1" stop-color="#603f8b"/>
</linearGradient>
</defs>
</svg>