<svg width="165" height="42" viewBox="0 0 165 42" fill="none" xmlns="http://www.w3.org/2000/svg">
<path d="M27.9585 37.5098C28.6835 37.8762 29.4999 38.0224 30.3071 37.9306C31.1142 37.8387 31.8768 37.5128 32.501 36.9929C33.1252 36.473 33.5837 35.7819 33.82 35.0046C34.0563 34.2274 34.06 33.398 33.8308 32.6187L33.168 30.3649C32.5661 28.3186 31.351 26.5062 29.6867 25.1723C28.0224 23.8384 25.9889 23.0471 23.8607 22.9052L13.1995 22.1944C12.3592 22.1385 11.5254 22.3746 10.8392 22.863C10.1531 23.3513 9.65683 24.0617 9.43446 24.874C9.21209 25.6863 9.27729 26.5505 9.61903 27.3202C9.96077 28.0899 10.558 28.7178 11.3097 29.0977L27.9585 37.5098ZM33.5098 10.0415C33.8762 9.31647 34.0224 8.50009 33.9306 7.69295C33.8387 6.8858 33.5128 6.12316 32.9929 5.49897C32.473 4.87477 31.7819 4.41629 31.0046 4.18001C30.2274 3.94373 29.398 3.93998 28.6187 4.1692L26.3649 4.83201C24.3186 5.43388 22.5062 6.64897 21.1723 8.31331C19.8384 9.97765 19.0471 12.0111 18.9052 14.1393L18.1944 24.8005C18.1385 25.6408 18.3746 26.4746 18.863 27.1608C19.3513 27.8469 20.0617 28.3432 20.874 28.5655C21.6863 28.7879 22.5505 28.7227 23.3202 28.381C24.0899 28.0392 24.7178 27.442 25.0977 26.6903L33.5098 10.0415ZM6.04152 4.49018C5.31647 4.12382 4.50009 3.97755 3.69295 4.0694C2.88581 4.16125 2.12316 4.4872 1.49897 5.00711C0.874775 5.52701 0.416294 6.21814 0.180016 6.99537C-0.056263 7.7726 -0.0600204 8.60198 0.169201 9.38132L0.832012 11.6351C1.43388 13.6814 2.64897 15.4938 4.31331 16.8277C5.97765 18.1616 8.01112 18.9529 10.1393 19.0948L20.8005 19.8056C21.6408 19.8615 22.4746 19.6254 23.1608 19.137C23.8469 18.6487 24.3432 17.9383 24.5655 17.126C24.7879 16.3137 24.7227 15.4495 24.381 14.6798C24.0392 13.9101 23.442 13.2822 22.6903 12.9023L6.04152 4.49018ZM0.490181 31.9585C0.123821 32.6835 -0.0224457 33.4999 0.0694046 34.3071C0.161255 35.1142 0.487206 35.8768 1.00711 36.501C1.52701 37.1252 2.21815 37.5837 2.99538 37.82C3.77261 38.0563 4.60198 38.06 5.38132 37.8308L7.63513 37.168C9.68138 36.5661 11.4938 35.351 12.8277 33.6867C14.1616 32.0224 14.9529 29.9889 15.0948 27.8607L15.8056 17.1995C15.8615 16.3592 15.6254 15.5254 15.137 14.8392C14.6487 14.1531 13.9383 13.6568 13.126 13.4345C12.3137 13.2121 11.4495 13.2773 10.6798 13.619C9.91011 13.9608 9.28216 14.558 8.90232 15.3097L0.490181 31.9585Z" fill="white"/>
<path d="M46.216 32L53.064 20.704L46.216 9.6H49.256L54.76 18.56L60.008 9.6H63.016L56.168 20.832L63.048 32H60.008L54.472 23.008L49.256 32H46.216ZM72.594 32.384C71.0793 32.384 69.7353 32.0427 68.562 31.36C67.3887 30.656 66.4607 29.6853 65.778 28.448C65.1167 27.2107 64.786 25.7493 64.786 24.064C64.786 22.4 65.1167 20.9493 65.778 19.712C66.4393 18.4533 67.3567 17.4827 68.53 16.8C69.7247 16.096 71.1007 15.744 72.658 15.744C74.194 15.744 75.5167 16.096 76.626 16.8C77.7567 17.4827 78.6207 18.3893 79.218 19.52C79.8153 20.6507 80.114 21.8667 80.114 23.168C80.114 23.4027 80.1033 23.6373 80.082 23.872C80.082 24.1067 80.082 24.3733 80.082 24.672H67.442C67.506 25.888 67.7833 26.9013 68.274 27.712C68.786 28.5013 69.4153 29.0987 70.162 29.504C70.93 29.9093 71.7407 30.112 72.594 30.112C73.7033 30.112 74.6313 29.856 75.378 29.344C76.1247 28.832 76.6687 28.1387 77.01 27.264H79.666C79.2393 28.736 78.418 29.9627 77.202 30.944C76.0073 31.904 74.4713 32.384 72.594 32.384ZM72.594 18.016C71.314 18.016 70.1727 18.4107 69.17 19.2C68.1887 19.968 67.6233 21.0987 67.474 22.592H77.458C77.394 21.1627 76.9033 20.0427 75.986 19.232C75.0687 18.4213 73.938 18.016 72.594 18.016ZM83.6768 32V16.128H86.1088L86.2688 18.976C86.7808 17.9733 87.5168 17.184 88.4768 16.608C89.4368 16.032 90.5248 15.744 91.7408 15.744C93.6181 15.744 95.1114 16.32 96.2208 17.472C97.3514 18.6027 97.9167 20.352 97.9167 22.72V32H95.2288V23.008C95.2288 19.7013 93.8634 18.048 91.1328 18.048C89.7674 18.048 88.6261 18.5493 87.7088 19.552C86.8128 20.5333 86.3648 21.9413 86.3648 23.776V32H83.6768ZM101.989 32V16.128H104.421L104.645 19.168C105.136 18.1227 105.883 17.2907 106.885 16.672C107.888 16.0533 109.125 15.744 110.597 15.744V18.56H109.861C108.923 18.56 108.059 18.7307 107.269 19.072C106.48 19.392 105.851 19.9467 105.381 20.736C104.912 21.5253 104.677 22.6133 104.677 24V32H101.989ZM120.157 32.384C118.642 32.384 117.298 32.0427 116.125 31.36C114.951 30.656 114.023 29.6853 113.341 28.448C112.679 27.2107 112.349 25.7493 112.349 24.064C112.349 22.4 112.679 20.9493 113.341 19.712C114.002 18.4533 114.919 17.4827 116.093 16.8C117.287 16.096 118.663 15.744 120.22 15.744C121.757 15.744 123.079 16.096 124.189 16.8C125.319 17.4827 126.183 18.3893 126.781 19.52C127.378 20.6507 127.677 21.8667 127.677 23.168C127.677 23.4027 127.666 23.6373 127.645 23.872C127.645 24.1067 127.645 24.3733 127.645 24.672H115.005C115.069 25.888 115.346 26.9013 115.837 27.712C116.349 28.5013 116.978 29.0987 117.725 29.504C118.493 29.9093 119.303 30.112 120.157 30.112C121.266 30.112 122.194 29.856 122.941 29.344C123.687 28.832 124.231 28.1387 124.573 27.264H127.229C126.802 28.736 125.981 29.9627 124.765 30.944C123.57 31.904 122.034 32.384 120.157 32.384ZM120.157 18.016C118.877 18.016 117.735 18.4107 116.733 19.2C115.751 19.968 115.186 21.0987 115.036 22.592H125.021C124.957 21.1627 124.466 20.0427 123.549 19.232C122.631 18.4213 121.501 18.016 120.157 18.016ZM131.239 32V16.128H133.671L133.831 18.976C134.343 17.9733 135.079 17.184 136.039 16.608C136.999 16.032 138.087 15.744 139.303 15.744C141.181 15.744 142.674 16.32 143.783 17.472C144.914 18.6027 145.479 20.352 145.479 22.72V32H142.791V23.008C142.791 19.7013 141.426 18.048 138.695 18.048C137.33 18.048 136.189 18.5493 135.271 19.552C134.375 20.5333 133.927 21.9413 133.927 23.776V32H131.239ZM154.832 32.384C153.509 32.384 152.41 32.16 151.536 31.712C150.661 31.264 150.01 30.6667 149.584 29.92C149.157 29.1733 148.944 28.3627 148.944 27.488C148.944 25.8667 149.562 24.6187 150.8 23.744C152.037 22.8693 153.722 22.432 155.856 22.432H160.144V22.24C160.144 20.8533 159.781 19.808 159.056 19.104C158.33 18.3787 157.36 18.016 156.144 18.016C155.098 18.016 154.192 18.2827 153.424 18.816C152.677 19.328 152.208 20.0853 152.016 21.088H149.264C149.37 19.936 149.754 18.9653 150.416 18.176C151.098 17.3867 151.941 16.7893 152.944 16.384C153.946 15.9573 155.013 15.744 156.144 15.744C158.362 15.744 160.026 16.3413 161.136 17.536C162.266 18.7093 162.832 20.2773 162.832 22.24V32H160.432L160.272 29.152C159.824 30.048 159.162 30.816 158.288 31.456C157.434 32.0747 156.282 32.384 154.832 32.384ZM155.248 30.112C156.272 30.112 157.146 29.8453 157.872 29.312C158.618 28.7787 159.184 28.0853 159.568 27.232C159.952 26.3787 160.144 25.4827 160.144 24.544V24.512H156.08C154.501 24.512 153.381 24.7893 152.72 25.344C152.08 25.8773 151.76 26.5493 151.76 27.36C151.76 28.192 152.058 28.864 152.656 29.376C153.274 29.8667 154.138 30.112 155.248 30.112Z" fill="white"/>
</svg>
